<?xml version="1.0" encoding="iso-8859-1"?>
<!-- Uploaded to: SVG Repo, www.svgrepo.com, Generator: SVG Repo Mixer Tools -->
<svg height="800px" width="800px" version="1.1" id="Layer_1" xmlns="http://www.w3.org/2000/svg" xmlns:xlink="http://www.w3.org/1999/xlink" 
	 viewBox="0 0 504 504" xml:space="preserve">
<path style="fill:#BC3F2C;" d="M252,209.6c56,0,101.6-45.6,101.6-101.6S308,6.4,252,6.4S150.4,52,150.4,108S196,209.6,252,209.6z"/>
<path d="M252,215.6c-59.6,0-107.6-48.4-107.6-107.6S192.4,0,252,0s107.6,48.4,107.6,107.6S311.6,215.6,252,215.6z M252,8
	c-55.2,0-99.6,44.8-99.6,99.6s44.8,99.6,99.6,99.6s99.6-44.8,99.6-99.6S307.2,8,252,8z"/>
<path d="M252,504c-2.4,0-4-1.6-4-4V212c0-2.4,1.6-4,4-4s4,1.6,4,4v288C256,502.4,254.4,504,252,504z"/>
<path d="M320,112c-2.4,0-4-1.6-4-4c0-35.2-28.8-64-64-64c-2.4,0-4-1.6-4-4s1.6-4,4-4c39.6,0,72,32.4,72,72C324,110,322,112,320,112z
	"/>
</svg>