<svg width="100" height="100" viewBox="0 0 100 100" fill="none" xmlns="http://www.w3.org/2000/svg">
<g clip-path="url(#clip0_10_6078)">
<path d="M98.0586 0.00240247C69.5603 -0.220252 44.8913 15.0521 27.6877 38.0135C20.3169 34.5711 11.4509 36.0688 5.61325 41.9065C4.85095 42.6689 4.85056 43.9059 5.61325 44.6687L21.3784 60.4339L18.4442 70.86C18.2528 71.5401 18.4436 72.2705 18.9433 72.7701L27.2303 81.0574C27.7325 81.5595 28.4647 81.7468 29.1405 81.5564L39.5664 78.6221C41.2619 80.3176 53.6477 92.7036 55.3315 94.3874C56.094 95.1497 57.3311 95.1499 58.0938 94.3874C63.9328 88.5482 65.4301 79.6816 61.9848 72.3115C68.3186 67.5674 76.9117 60.0394 84.3151 49.7433C84.9448 48.8675 84.7454 47.6472 83.8696 47.0174C82.9941 46.3879 81.7736 46.5873 81.1437 47.4629C73.4972 58.097 64.5141 65.6733 58.3243 70.1571C51.914 74.8037 47.0822 77.2242 44.7353 78.2666C42.8548 76.3861 36.7875 70.3188 34.6156 68.1469L45.6642 57.0984C46.4269 56.3357 46.4269 55.099 45.6642 54.3361C44.9017 53.5736 43.6648 53.5736 42.9021 54.3361L31.8535 65.3846C24.5462 58.0771 32.4986 66.0276 21.7341 55.265C27.9495 41.2707 47.6636 15.2363 77.0685 6.77424C77.7167 10.806 79.6079 14.5369 82.5353 17.466C85.4628 20.3917 89.1925 22.2827 93.2227 22.9316C92.2829 26.1933 91.1106 29.4278 89.7186 32.5741C89.2823 33.5606 89.7282 34.7141 90.7147 35.1504C91.7032 35.5872 92.8551 35.1397 93.2909 34.1544C97.9707 23.5751 100.075 12.7308 99.9977 1.94165C99.99 0.873882 99.1264 0.0100196 98.0586 0.00240247ZM58.742 74.6457C60.858 79.8017 60.052 85.7445 56.6264 90.1573L47.68 81.2107C51.0019 79.6137 54.8966 77.3045 58.742 74.6457ZM24.5452 63.6003C25.787 64.8421 35.1428 74.1981 36.3998 75.4549L29.1834 77.4857L22.5143 70.8164L24.5452 63.6003ZM18.7895 52.3205L9.84292 43.374C14.2546 39.9492 20.1968 39.1428 25.3532 41.2567C22.6962 45.1006 20.3876 48.9961 18.7895 52.3205ZM94.212 19.1324C90.8481 18.6722 87.7274 17.1324 85.2972 14.7035C82.8679 12.2728 81.3279 9.15215 80.8677 5.78811C85.8259 4.64417 90.927 4.01644 96.0803 3.91976C95.9834 9.07305 95.3557 14.1748 94.212 19.1324Z" fill="#7F7B7B"/>
<path d="M52.3611 28.3048C47.024 33.6417 47.0234 42.3017 52.3611 47.6392C57.6978 52.9759 66.358 52.9769 71.6955 47.6392C77.0326 42.3023 77.0332 33.6423 71.6955 28.3048C66.3587 22.9681 57.6986 22.9673 52.3611 28.3048ZM68.9334 44.8771C65.123 48.6876 58.9339 48.6878 55.1234 44.8771C51.313 41.0671 51.3125 34.8775 55.1234 31.0671C58.9337 27.2566 65.1226 27.2564 68.9335 31.0671C72.7437 34.8771 72.7443 41.0667 68.9334 44.8771Z" fill="#7F7B7B"/>
<path d="M87.1633 42.9636C88.242 42.9636 89.1165 42.0892 89.1165 41.0105C89.1165 39.9318 88.242 39.0574 87.1633 39.0574C86.0846 39.0574 85.2102 39.9318 85.2102 41.0105C85.2102 42.0892 86.0846 42.9636 87.1633 42.9636Z" fill="#7F7B7B"/>
<path d="M10.6557 78.2955C8.25768 80.6955 1.52194 94.46 0.195959 97.1949C-0.166932 97.9434 -0.0159552 98.8398 0.572326 99.4281C1.16373 100.019 2.06119 100.166 2.80553 99.8045C5.54049 98.4785 19.3049 91.7428 21.7051 89.3447C21.7053 89.3445 21.7055 89.3443 21.7057 89.3441C24.752 86.2979 24.752 81.341 21.7057 78.2949C18.6526 75.2416 13.7112 75.2396 10.6557 78.2955ZM18.944 86.5813C17.8694 87.6549 11.9417 90.8512 6.28092 93.7193C9.14928 88.0588 12.3454 82.1311 13.4184 81.057C14.9456 79.5297 17.4157 79.5291 18.9434 81.057C20.4665 82.5801 20.4667 85.0582 18.944 86.5813Z" fill="#7F7B7B"/>
</g>
<defs>
<clipPath id="clip0_10_6078">
<rect width="100" height="100" fill="white"/>
</clipPath>
</defs>
</svg>
